<svg xmlns="http://www.w3.org/2000/svg" xmlns:xlink="http://www.w3.org/1999/xlink" enable-background="new 0 0 64 64" id="Layer_1" version="1.1" viewBox="0 0 64 64" xml:space="preserve"><g><path d="M32,35c5.5136719,0,10-4.4863281,10-10v-5c0-5.5136719-4.4863281-10-10-10s-10,4.4863281-10,10v5   C22,30.5136719,26.4863281,35,32,35z M26,20c0-3.3085938,2.6914063-6,6-6s6,2.6914063,6,6v5c0,3.3085938-2.6914063,6-6,6   s-6-2.6914063-6-6V20z" fill="#ffffff"/><path d="M41,37h-2.7597656c-0.6083984,0-1.1835938,0.2773438-1.5634766,0.7529297C35.5371094,39.1806641,33.8330078,40,32,40   s-3.5371094-0.8193359-4.6767578-2.2470703C26.9433594,37.2773438,26.3681641,37,25.7597656,37H23c-6.6171875,0-12,5.3828125-12,12   v12c0,1.1044922,0.8955078,2,2,2h38c1.1044922,0,2-0.8955078,2-2V49C53,42.3828125,47.6171875,37,41,37z M49,59H15V49   c0-4.4111328,3.5888672-8,8-8h1.8603516C26.7304688,42.9179688,29.28125,44,32,44s5.2695313-1.0820313,7.1396484-3H41   c4.4111328,0,8,3.5888672,8,8V59z" fill="#ffffff"/><path d="M44,52h-3c-1.1044922,0-2,0.8955078-2,2s0.8955078,2,2,2h3c1.1044922,0,2-0.8955078,2-2S45.1044922,52,44,52z" fill="#ffffff"/><path d="M32,1C18.2148438,1,7,12.2148438,7,26c0,3.8095703,0.8349609,7.4677734,2.4814453,10.8710938   c0.4824219,0.9960938,1.6826172,1.4101563,2.671875,0.9296875c0.9941406-0.4814453,1.4101563-1.6777344,0.9296875-2.671875   C11.7001953,32.2724609,11,29.2011719,11,26c0-11.5791016,9.4208984-21,21-21s21,9.4208984,21,21   c0,3.2011719-0.7001953,6.2724609-2.0830078,9.1289063c-0.4804688,0.9941406-0.0644531,2.1904297,0.9296875,2.671875   C52.1269531,37.9365234,52.4238281,38,52.7167969,38c0.7421875,0,1.4560547-0.4150391,1.8017578-1.1289063   C56.1650391,33.4677734,57,29.8095703,57,26C57,12.2148438,45.7851563,1,32,1z" fill="#ffffff"/></g></svg>