<svg xmlns="http://www.w3.org/2000/svg" xmlns:xlink="http://www.w3.org/1999/xlink" style="enable-background:new 0 0 44 44;" version="1.1" viewBox="0 0 44 44" xml:space="preserve"><g id="ghost"/><g id="bat"/><g id="monster"/><g id="jason"/><g id="grave"/><g id="skull"/><g id="cauldron"/><g id="cleaver"/><g id="candle"/><g id="cat"/><g id="owl"/><g id="pumkin"/><g id="eye"/><g id="vampire"/><g id="finger"/><g id="leaf"/><g id="coffin"/><g id="broom"><g><g><circle cx="41" cy="27" r="1" fill="#2eb67d"/></g><g><circle cx="28" cy="3" r="1" fill="#2eb67d"/></g><path d="M43,17h-1v-1c0-0.553-0.447-1-1-1s-1,0.447-1,1v1h-1c-0.553,0-1,0.447-1,1s0.447,1,1,1h1v1c0,0.553,0.447,1,1,1    s1-0.447,1-1v-1h1c0.553,0,1-0.447,1-1S43.553,17,43,17z" fill="#fa2d65"/><path d="M24,6h-1V5c0-0.553-0.447-1-1-1s-1,0.447-1,1v1h-1c-0.553,0-1,0.447-1,1s0.447,1,1,1h1v1c0,0.553,0.447,1,1,1s1-0.447,1-1    V8h1c0.553,0,1-0.447,1-1S24.553,6,24,6z" fill="#fa2d65"/><g><path d="M33,27c-1.654,0-3-1.346-3-3s1.346-3,3-3s3,1.346,3,3S34.654,27,33,27z M33,23c-0.552,0-1,0.448-1,1s0.448,1,1,1     s1-0.448,1-1S33.552,23,33,23z" fill="#f4c20d"/></g><g><path d="M8,16c-1.654,0-3-1.346-3-3s1.346-3,3-3s3,1.346,3,3S9.654,16,8,16z M8,12c-0.552,0-1,0.448-1,1s0.448,1,1,1s1-0.448,1-1     S8.552,12,8,12z" fill="#f4c20d"/></g><path d="M44,2.707c0-0.723-0.281-1.402-0.793-1.914S42.016,0,41.293,0c-1.101,0-2.136,0.429-2.914,1.207l-16.88,16.88    c-0.837-0.82-2.183-0.817-3.014,0.014c-0.235,0.235-0.414,0.525-0.518,0.838l-0.84,2.52l-1.644,1.644L1.998,26.699    C0.821,27.013,0,28.082,0,29.3c0,0.719,0.28,1.395,0.788,1.902l3.172,3.172c0.281,0.281,0.698,0.368,1.066,0.227l0.068-0.026    c-0.174,0.37-0.108,0.826,0.198,1.133l7.505,7.505C13.306,43.72,13.981,44,14.7,44c1.218,0,2.287-0.821,2.601-1.998l3.596-13.484    l1.644-1.644l2.518-0.839c0.314-0.104,0.604-0.283,0.84-0.519c0.831-0.831,0.834-2.177,0.014-3.014l16.88-16.88    C43.571,4.843,44,3.808,44,2.707z M20,26.586L17.414,24L18,23.414L20.586,26L20,26.586z M15.369,41.486    c-0.129,0.481-0.804,0.662-1.157,0.312L7.414,35l2.293-2.293c0.334-0.334,0.389-0.856,0.132-1.252    c-0.259-0.397-0.76-0.559-1.198-0.389L4.914,32.5l-2.712-2.712C2.072,29.657,2,29.484,2,29.3c0-0.313,0.211-0.588,0.514-0.669    L15.7,25.115l3.185,3.185L15.369,41.486z M24.428,24.137l-2.157,0.719l-3.124-3.123l0.752-2.217c0.057-0.057,0.146-0.057,0.203,0    l4.383,4.383C24.54,23.954,24.54,24.046,24.428,24.137z M41.379,4.207L24.5,21.086L22.914,19.5L39.793,2.621    c0.4-0.4,0.934-0.621,1.5-0.621c0.188,0,0.366,0.073,0.5,0.207S42,2.519,42,2.707C42,3.273,41.779,3.807,41.379,4.207z" fill="#2eb67d"/></g></g><g id="moon"/><g id="poison"/><g id="sweet"/><g id="zombie"/><g id="hat"/><g id="candy"/></svg>
