<svg xmlns="http://www.w3.org/2000/svg" xmlns:xlink="http://www.w3.org/1999/xlink" id="Layer_1" style="enable-background:new 0 0 48 48;" version="1.1" viewBox="0 0 48 48" xml:space="preserve"><g><path d="M24,16c-2.2,0-4,1.8-4,4s1.8,4,4,4s4-1.8,4-4S26.2,16,24,16z M24,22c-1.1,0-2-0.9-2-2s0.9-2,2-2s2,0.9,2,2S25.1,22,24,22z" fill="#17283e"/><path d="M13,16c-2.2,0-4,1.8-4,4s1.8,4,4,4s4-1.8,4-4S15.2,16,13,16z M13,22c-1.1,0-2-0.9-2-2s0.9-2,2-2s2,0.9,2,2S14.1,22,13,22z" fill="#17283e"/><path d="M35,16c-2.2,0-4,1.8-4,4s1.8,4,4,4s4-1.8,4-4S37.2,16,35,16z M35,22c-1.1,0-2-0.9-2-2s0.9-2,2-2s2,0.9,2,2S36.1,22,35,22z" fill="#17283e"/><path d="M43,6H5C3.3,6,2,7.3,2,9v22c0,1.7,1.3,3,3,3h11.5l7.5,8.5l7.5-8.5H43c1.7,0,3-1.3,3-3V9C46,7.3,44.7,6,43,6z M44,31   c0,0.6-0.4,1-1,1H30.5L24,39.5L17.5,32H5c-0.6,0-1-0.4-1-1V9c0-0.6,0.4-1,1-1h38c0.6,0,1,0.4,1,1V31z" fill="#17283e"/></g></svg>