<svg xmlns="http://www.w3.org/2000/svg" xmlns:serif="http://www.serif.com/" xmlns:xlink="http://www.w3.org/1999/xlink" height="100%" style="fill-rule:evenodd;clip-rule:evenodd;stroke-linejoin:round;stroke-miterlimit:2;" version="1.1" viewBox="0 0 24 24" width="100%" xml:space="preserve"><g id="Icon"><path d="M16.073,5.283c-0.063,-0.21 -0.141,-0.413 -0.234,-0.608c-0.683,-1.434 -2.145,-2.425 -3.839,-2.425l-0,0c-2.347,0 -4.25,1.903 -4.25,4.25l-0,5.497c-0,0.414 0.336,0.75 0.75,0.75c0.414,0 0.75,-0.336 0.75,-0.75l0,-5.497c0,-1.519 1.231,-2.75 2.75,-2.75c1.096,0 2.043,0.642 2.485,1.57c0.06,0.125 0.11,0.256 0.151,0.392c0.118,0.397 0.536,0.622 0.933,0.504c0.396,-0.118 0.622,-0.537 0.504,-0.933Z"/><path d="M7.432,17.626l-2.902,2.902c-0.292,0.292 -0.768,0.292 -1.06,-0c-0.293,-0.293 -0.293,-0.768 -0,-1.061l16,-16c0.292,-0.293 0.768,-0.293 1.06,0c0.293,0.293 0.293,0.768 0,1.061l-4.28,4.28l-0,3.189c-0,2.348 -1.903,4.25 -4.25,4.25l-0,0c-0.903,0 -1.74,-0.281 -2.428,-0.761l-1.072,1.072c0.969,0.746 2.183,1.189 3.5,1.189c3.174,0 5.75,-2.576 5.75,-5.75c-0,-0.414 0.336,-0.75 0.75,-0.75c0.414,0 0.75,0.336 0.75,0.75c-0,3.748 -2.85,6.836 -6.5,7.212l-0,1.788c0,0.414 -0.336,0.75 -0.75,0.75c-0.414,0 -0.75,-0.336 -0.75,-0.75l-0,-1.788c-1.439,-0.148 -2.753,-0.718 -3.818,-1.583Zm7.318,-7.318l-4.091,4.091c0.397,0.222 0.854,0.348 1.341,0.348c1.519,0 2.75,-1.231 2.75,-2.75l-0,-1.689Z"/><path d="M6.692,14.211c-0.285,-0.682 -0.442,-1.429 -0.442,-2.214c-0,-0.414 -0.336,-0.75 -0.75,-0.75c-0.414,0 -0.75,0.336 -0.75,0.75c-0,0.99 0.199,1.933 0.558,2.792c0.16,0.382 0.599,0.563 0.981,0.403c0.382,-0.16 0.563,-0.599 0.403,-0.981Z"/></g></svg>